<svg width="30" height="32" viewBox="0 0 30 32" fill="none" xmlns="http://www.w3.org/2000/svg">
<g filter="url(#filter0_d_1_252)">
<path fill-rule="evenodd" clip-rule="evenodd" d="M7.28407 21.6454C7.4764 23.3555 9.72197 23.8596 10.6276 22.3958L15.1971 15.0099L23.7449 13.4503C25.4389 13.1412 25.788 10.8677 24.2647 10.0653L7.85985 1.42404C6.5724 0.745866 5.05045 1.78379 5.21298 3.22911L7.28407 21.6454Z" fill="#750AE1"/>
<path fill-rule="evenodd" clip-rule="evenodd" d="M7.28407 21.6454C7.4764 23.3555 9.72197 23.8596 10.6276 22.3958L15.1971 15.0099L23.7449 13.4503C25.4389 13.1412 25.788 10.8677 24.2647 10.0653L7.85985 1.42404C6.5724 0.745866 5.05045 1.78379 5.21298 3.22911L7.28407 21.6454Z" stroke="#F2F2F2" stroke-width="1.5"/>
</g>
<defs>
<filter id="filter0_d_1_252" x="0.450653" y="0.460449" width="29.5329" height="31.5469" filterUnits="userSpaceOnUse" color-interpolation-filters="sRGB">
<feFlood flood-opacity="0" result="BackgroundImageFix"/>
<feColorMatrix in="SourceAlpha" type="matrix" values="0 0 0 0 0 0 0 0 0 0 0 0 0 0 0 0 0 0 127 0" result="hardAlpha"/>
<feOffset dy="4"/>
<feGaussianBlur stdDeviation="2"/>
<feComposite in2="hardAlpha" operator="out"/>
<feColorMatrix type="matrix" values="0 0 0 0 0 0 0 0 0 0 0 0 0 0 0 0 0 0 0.25 0"/>
<feBlend mode="normal" in2="BackgroundImageFix" result="effect1_dropShadow_1_252"/>
<feBlend mode="normal" in="SourceGraphic" in2="effect1_dropShadow_1_252" result="shape"/>
</filter>
</defs>
</svg>
